<svg width="100" height="100" viewBox="0 0 100 100" fill="none" xmlns="http://www.w3.org/2000/svg">
<path d="M17.58 17.34C18.9 17.34 19.97 17.54 20.79 17.94C21.61 18.32 22.36 18.77 23.04 19.29C23.3 19.49 23.5 19.59 23.64 19.59C24.02 19.59 24.27 18.98 24.39 17.76H25.08C25.04 18.52 25.01 19.44 24.99 20.52C24.97 21.58 24.96 23 24.96 24.78H24.27C24.13 23.82 23.94 22.93 23.7 22.11C23.48 21.29 23.09 20.59 22.53 20.01C21.99 19.37 21.28 18.87 20.4 18.51C19.54 18.15 18.66 17.97 17.76 17.97C16.72 17.97 15.8 18.23 15 18.75C14.2 19.25 13.52 19.97 12.96 20.91C12.42 21.85 12 22.96 11.7 24.24C11.42 25.5 11.28 26.89 11.28 28.41C11.28 32.01 11.83 34.65 12.93 36.33C14.05 37.99 15.73 38.82 17.97 38.82C18.61 38.82 19.16 38.73 19.62 38.55C20.1 38.37 20.48 38.19 20.76 38.01C21.1 37.77 21.32 37.54 21.42 37.32C21.52 37.08 21.57 36.77 21.57 36.39V33.48C21.57 32.62 21.49 31.99 21.33 31.59C21.19 31.17 20.9 30.89 20.46 30.75C20.02 30.59 19.38 30.5 18.54 30.48V29.88C18.92 29.9 19.37 29.92 19.89 29.94C20.41 29.94 20.95 29.95 21.51 29.97C22.09 29.97 22.61 29.97 23.07 29.97C23.79 29.97 24.44 29.96 25.02 29.94C25.62 29.92 26.11 29.9 26.49 29.88V30.48C26.07 30.5 25.75 30.57 25.53 30.69C25.33 30.81 25.19 31.05 25.11 31.41C25.05 31.77 25.02 32.32 25.02 33.06V39H24.42C24.4 38.66 24.32 38.29 24.18 37.89C24.06 37.49 23.87 37.29 23.61 37.29C23.47 37.29 23.32 37.32 23.16 37.38C23.02 37.44 22.77 37.59 22.41 37.83C21.71 38.31 20.98 38.7 20.22 39C19.46 39.28 18.6 39.42 17.64 39.42C15.5 39.42 13.67 39 12.15 38.16C10.63 37.3 9.47 36.07 8.67 34.47C7.89 32.85 7.5 30.93 7.5 28.71C7.5 26.39 7.93 24.38 8.79 22.68C9.67 20.98 10.86 19.67 12.36 18.75C13.88 17.81 15.62 17.34 17.58 17.34ZM39.776 17.76V18.36C39.116 18.38 38.616 18.46 38.276 18.6C37.936 18.72 37.706 18.96 37.586 19.32C37.466 19.66 37.406 20.2 37.406 20.94V35.82C37.406 36.54 37.466 37.08 37.586 37.44C37.706 37.8 37.936 38.04 38.276 38.16C38.616 38.28 39.116 38.36 39.776 38.4V39C39.296 38.96 38.686 38.94 37.946 38.94C37.226 38.92 36.486 38.91 35.726 38.91C34.886 38.91 34.096 38.92 33.356 38.94C32.636 38.94 32.046 38.96 31.586 39V38.4C32.266 38.36 32.776 38.28 33.116 38.16C33.456 38.04 33.676 37.8 33.776 37.44C33.896 37.08 33.956 36.54 33.956 35.82V20.94C33.956 20.2 33.896 19.66 33.776 19.32C33.676 18.96 33.446 18.72 33.086 18.6C32.746 18.46 32.246 18.38 31.586 18.36V17.76C32.046 17.78 32.636 17.8 33.356 17.82C34.096 17.84 34.886 17.85 35.726 17.85C36.486 17.85 37.226 17.84 37.946 17.82C38.686 17.8 39.296 17.78 39.776 17.76ZM55.0992 17.34C57.0592 17.34 58.7792 17.77 60.2592 18.63C61.7592 19.49 62.9192 20.73 63.7392 22.35C64.5592 23.95 64.9692 25.9 64.9692 28.2C64.9692 30.44 64.5492 32.4 63.7092 34.08C62.8692 35.76 61.6992 37.07 60.1992 38.01C58.6992 38.95 56.9892 39.42 55.0692 39.42C53.0892 39.42 51.3592 38.99 49.8792 38.13C48.3992 37.27 47.2492 36.03 46.4292 34.41C45.6092 32.79 45.1992 30.84 45.1992 28.56C45.1992 26.32 45.6192 24.36 46.4592 22.68C47.3192 21 48.4892 19.69 49.9692 18.75C51.4492 17.81 53.1592 17.34 55.0992 17.34ZM54.9792 17.88C53.7392 17.88 52.6592 18.33 51.7392 19.23C50.8192 20.13 50.1092 21.37 49.6092 22.95C49.1092 24.53 48.8592 26.36 48.8592 28.44C48.8592 30.56 49.1392 32.41 49.6992 33.99C50.2592 35.55 51.0192 36.76 51.9792 37.62C52.9392 38.46 54.0092 38.88 55.1892 38.88C56.4292 38.88 57.4992 38.43 58.3992 37.53C59.3192 36.63 60.0292 35.39 60.5292 33.81C61.0492 32.21 61.3092 30.38 61.3092 28.32C61.3092 26.18 61.0192 24.33 60.4392 22.77C59.8792 21.21 59.1192 20.01 58.1592 19.17C57.2192 18.31 56.1592 17.88 54.9792 17.88ZM38.0484 62.34C39.3684 62.34 40.4484 62.54 41.2884 62.94C42.1484 63.32 42.9084 63.77 43.5684 64.29C43.9684 64.59 44.2684 64.63 44.4684 64.41C44.6884 64.17 44.8384 63.62 44.9184 62.76H45.6084C45.5684 63.52 45.5384 64.44 45.5184 65.52C45.4984 66.58 45.4884 68 45.4884 69.78H44.7984C44.6584 68.9 44.5184 68.18 44.3784 67.62C44.2584 67.06 44.0884 66.58 43.8684 66.18C43.6684 65.78 43.3884 65.39 43.0284 65.01C42.4484 64.29 41.7384 63.77 40.8984 63.45C40.0584 63.13 39.1684 62.97 38.2284 62.97C37.2084 62.97 36.3084 63.23 35.5284 63.75C34.7484 64.25 34.0884 64.97 33.5484 65.91C33.0284 66.85 32.6284 67.96 32.3484 69.24C32.0684 70.52 31.9284 71.92 31.9284 73.44C31.9284 75 32.0784 76.42 32.3784 77.7C32.6784 78.96 33.1084 80.05 33.6684 80.97C34.2484 81.87 34.9384 82.57 35.7384 83.07C36.5584 83.55 37.4684 83.79 38.4684 83.79C39.2884 83.79 40.1384 83.63 41.0184 83.31C41.8984 82.97 42.5984 82.46 43.1184 81.78C43.6784 81.18 44.0584 80.51 44.2584 79.77C44.4784 79.01 44.6584 77.98 44.7984 76.68H45.4884C45.4884 78.52 45.4984 80.01 45.5184 81.15C45.5384 82.27 45.5684 83.22 45.6084 84H44.9184C44.8384 83.14 44.6984 82.6 44.4984 82.38C44.3184 82.16 44.0084 82.19 43.5684 82.47C42.8284 82.99 42.0384 83.45 41.1984 83.85C40.3784 84.23 39.3184 84.42 38.0184 84.42C36.0384 84.42 34.3084 83.99 32.8284 83.13C31.3484 82.27 30.1984 81.03 29.3784 79.41C28.5584 77.79 28.1484 75.84 28.1484 73.56C28.1484 71.32 28.5684 69.36 29.4084 67.68C30.2684 66 31.4384 64.69 32.9184 63.75C34.3984 62.81 36.1084 62.34 38.0484 62.34ZM60.6185 62.64L67.9385 81.48C68.2185 82.22 68.5385 82.72 68.8985 82.98C69.2785 83.24 69.6285 83.38 69.9485 83.4V84C69.4685 83.96 68.8985 83.94 68.2385 83.94C67.5985 83.92 66.9485 83.91 66.2885 83.91C65.4485 83.91 64.6685 83.92 63.9485 83.94C63.2285 83.94 62.6485 83.96 62.2085 84V83.4C63.2285 83.36 63.8685 83.19 64.1285 82.89C64.4085 82.57 64.3485 81.9 63.9485 80.88L58.5485 66.3L59.0285 65.76L54.0485 78.78C53.6885 79.68 53.4685 80.43 53.3885 81.03C53.3285 81.63 53.3785 82.1 53.5385 82.44C53.7185 82.78 54.0185 83.02 54.4385 83.16C54.8585 83.3 55.3785 83.38 55.9985 83.4V84C55.3985 83.96 54.7885 83.94 54.1685 83.94C53.5685 83.92 52.9985 83.91 52.4585 83.91C51.9785 83.91 51.5485 83.92 51.1685 83.94C50.8085 83.94 50.4785 83.96 50.1785 84V83.4C50.5985 83.3 51.0185 83.05 51.4385 82.65C51.8585 82.25 52.2585 81.57 52.6385 80.61L59.5985 62.64C59.7585 62.64 59.9285 62.64 60.1085 62.64C60.2885 62.64 60.4585 62.64 60.6185 62.64ZM63.7685 75.36V75.96H54.8285L55.1285 75.36H63.7685ZM81.8606 62.76C85.5606 62.76 88.3106 63.66 90.1106 65.46C91.9106 67.24 92.8106 69.8 92.8106 73.14C92.8106 75.32 92.3706 77.23 91.4906 78.87C90.6106 80.49 89.3306 81.75 87.6506 82.65C85.9906 83.55 83.9706 84 81.5906 84C81.2906 84 80.8806 83.99 80.3606 83.97C79.8606 83.95 79.3406 83.94 78.8006 83.94C78.2606 83.92 77.7706 83.91 77.3306 83.91C76.5706 83.91 75.8206 83.92 75.0806 83.94C74.3606 83.94 73.7706 83.96 73.3106 84V83.4C73.9906 83.36 74.5006 83.28 74.8406 83.16C75.1806 83.04 75.4006 82.8 75.5006 82.44C75.6206 82.08 75.6806 81.54 75.6806 80.82V65.94C75.6806 65.2 75.6206 64.66 75.5006 64.32C75.4006 63.96 75.1706 63.72 74.8106 63.6C74.4706 63.46 73.9706 63.38 73.3106 63.36V62.76C73.7706 62.78 74.3606 62.81 75.0806 62.85C75.8206 62.87 76.5506 62.87 77.2706 62.85C77.9906 62.83 78.7906 62.81 79.6706 62.79C80.5706 62.77 81.3006 62.76 81.8606 62.76ZM81.3506 63.3C80.4306 63.3 79.8306 63.47 79.5506 63.81C79.2706 64.15 79.1306 64.84 79.1306 65.88V80.88C79.1306 81.92 79.2706 82.61 79.5506 82.95C79.8506 83.29 80.4606 83.46 81.3806 83.46C83.4006 83.46 84.9706 83.07 86.0906 82.29C87.2106 81.49 88.0006 80.33 88.4606 78.81C88.9206 77.29 89.1506 75.44 89.1506 73.26C89.1506 71.02 88.9006 69.17 88.4006 67.71C87.9006 66.23 87.0806 65.13 85.9406 64.41C84.8206 63.67 83.2906 63.3 81.3506 63.3Z" fill="#0B090A"/>
<rect x="1" y="1" width="98" height="98" rx="3" stroke="#0B090A" stroke-width="2"/>
</svg>
